<svg
  xmlns="http://www.w3.org/2000/svg"
  viewBox="0 0 109.62 109.63"
>
  <defs>
    <style>.cls-1{fill:#fff;}.cls-2{fill:#0090c6;}</style>
  </defs>
  <title>Fichier 9</title>
  <g id="Calque_2">
    <g id="Calque_1-2">
      <path
        class="cls-1"
        d="M54.81,109.63a54.82,54.82,0,1,1,54.81-54.82A54.88,54.88,0,0,1,54.81,109.63Zm0-104.06a49.25,49.25,0,1,0,49.25,49.24A49.3,49.3,0,0,0,54.81,5.57Z"
      />
      <path
        class="cls-1"
        d="M72.2,62.34a15.9,15.9,0,0,0-2-31.12L69,31.06H63a.72.72,0,0,0-.7.9l1.15,4.78a.72.72,0,0,0,.7.55H69v0l.85.15a9.68,9.68,0,0,1,.12,19l-.24,0H66.5a.74.74,0,0,0-.75.76c0,2.54,0,5-.13,7.4l6,14.95a1.17,1.17,0,0,0,1.07.72H77a1.15,1.15,0,0,0,1-1.62l-6.6-14.78A1.15,1.15,0,0,1,72.2,62.34Z"
      />
      <path
        class="cls-2"
        d="M62.27,49.32A102.37,102.37,0,0,0,59.6,33.51a61.55,61.55,0,0,0-2.5-7.69,24.7,24.7,0,0,0-1.87-3.7,9.58,9.58,0,0,0-1.38-1.74,4.55,4.55,0,0,0-.46-.4,4.35,4.35,0,0,0-.55-.36,2.78,2.78,0,0,0-1.25-.31h-.23A2.59,2.59,0,0,0,50,20a4.81,4.81,0,0,0-.44.47c-.11.16-.24.32-.33.48a8.72,8.72,0,0,0-.84,2,24.23,24.23,0,0,0-.81,4,66.36,66.36,0,0,0-.47,8c0,2.41,0,4.81.15,7.21l.14-.2q0-3.51.19-7a59.51,59.51,0,0,1,1-7.79,22.17,22.17,0,0,1,1.09-3.69,7,7,0,0,1,.84-1.58,2.66,2.66,0,0,1,.26-.31,1.86,1.86,0,0,1,.26-.23.79.79,0,0,1,.43-.17,1,1,0,0,1,.42.16l.25.21.27.27a7.77,7.77,0,0,1,.93,1.46,23,23,0,0,1,1.39,3.5,64.32,64.32,0,0,1,1.85,7.51c1,5.09,1.63,10.27,2.11,15.45s.77,10.4.74,15.59A65.68,65.68,0,0,1,59,72.94a23,23,0,0,1-.73,3.69,7.32,7.32,0,0,1-.65,1.61c-.06.11-.14.2-.2.31l-.22.25a1.09,1.09,0,0,1-.37.24h-.08A.9.9,0,0,1,56.4,79a1.92,1.92,0,0,1-.29-.18,3.4,3.4,0,0,1-.31-.25,7.13,7.13,0,0,1-1.11-1.4,21.67,21.67,0,0,1-1.75-3.43,59.28,59.28,0,0,1-2.44-7.47c-.59-2.3-1.08-4.64-1.49-7l-.15,0c.33,2.38.71,4.75,1.17,7.11a65.56,65.56,0,0,0,1.91,7.73,24.17,24.17,0,0,0,1.52,3.77,8.37,8.37,0,0,0,1.19,1.8,5.54,5.54,0,0,0,.42.42,5.2,5.2,0,0,0,.51.38,2.61,2.61,0,0,0,1.35.38H57a2.64,2.64,0,0,0,1.4-.57,4.22,4.22,0,0,0,.49-.45,5.58,5.58,0,0,0,.38-.47,9.55,9.55,0,0,0,1-2,23.64,23.64,0,0,0,1.16-4,59.47,59.47,0,0,0,1.06-8A102,102,0,0,0,62.27,49.32Z"
      />
      <path
        class="cls-1"
        d="M41.65,55.53,52.2,38.6a.63.63,0,0,0,.09-.42l-.85-6.57a.63.63,0,0,0-1.17-.25l-29.9,48a.64.64,0,0,0,.53,1H27A.64.64,0,0,0,27.5,80L37.65,62.38a.65.65,0,0,1,.55-.32H53.68a.63.63,0,0,0,.63-.71l-.56-4.29a.64.64,0,0,0-.63-.56H42.19A.64.64,0,0,1,41.65,55.53Z"
      />
    </g>
  </g>
</svg>
