<?xml version="1.0" encoding="UTF-8"?>
<svg width="116.28mm" height="10.764mm" version="1.1" viewBox="0 0 116.28 10.764" xmlns="http://www.w3.org/2000/svg">
  <g transform="translate(-61.301 -93.648)" fill="#333" stroke-width=".26458">
    <path class="cls-1" d="m90.177 99.104 0.34131 2.6696a0.2249 0.2249 0 0 0 0.43921 0.0238l0.54769-2.2569a0.22225 0.22225 0 0 1 0.21696-0.17198h3.7677a0.21696 0.21696 0 0 0 0.21431-0.16933l0.17727-0.73025a0.22225 0.22225 0 0 0-0.21696-0.26458h-3.5692a0.2249 0.2249 0 0 1-0.21696-0.26458l0.64294-2.6802a0.22225 0.22225 0 0 1 0.21696-0.17198h4.3021a0.22225 0.22225 0 0 0 0.21696-0.17198l0.17727-0.75935a0.2249 0.2249 0 0 0-0.21696-0.26458h-5.6303a0.2249 0.2249 0 0 0-0.21696 0.17198l-1.188 4.9689a0.20108 0.20108 0 0 0-0.0053 0.07144z"/>
    <path class="cls-1" d="m95.432 104.01 0.17462-0.74348a0.23019 0.23019 0 0 0-0.2249-0.28311h-4.4476a0.23019 0.23019 0 0 0-0.22754 0.26459l0.09525 0.74348a0.23019 0.23019 0 0 0 0.22754 0.20108h4.1672a0.23019 0.23019 0 0 0 0.23548-0.18256z"/>
    <path class="cls-1" d="m135.66 104.19h0.98954a0.21696 0.21696 0 0 0 0.21431-0.16934l2.3627-9.861a0.2196 0.2196 0 0 0-0.21431-0.26458h-0.9869a0.2196 0.2196 0 0 0-0.21431 0.16933l-2.3601 9.861a0.2196 0.2196 0 0 0 0.20902 0.26459z"/>
    <path class="cls-1" d="m142.65 95.088h2.5612a0.21696 0.21696 0 0 1 0.20902 0.26458l-2.0558 8.5646a0.21431 0.21431 0 0 0 0.20902 0.26458h0.99748a0.21696 0.21696 0 0 0 0.21167-0.16668l2.1167-8.7656a0.21696 0.21696 0 0 1 0.21166-0.16669h2.7649a0.21696 0.21696 0 0 0 0.21166-0.16669l0.17992-0.76994a0.21696 0.21696 0 0 0-0.21167-0.26458h-7.2231a0.21696 0.21696 0 0 0-0.21167 0.16669l-0.17991 0.77258a0.21431 0.21431 0 0 0 0.20902 0.26723z"/>
    <path class="cls-1" d="m164.57 104.04 0.18785-0.81756a0.1905 0.1905 0 0 0-0.18521-0.23548h-4.5323a0.19315 0.19315 0 0 0-0.1905 0.21696l0.10583 0.8202a0.19315 0.19315 0 0 0 0.1905 0.16669h4.2333a0.19315 0.19315 0 0 0 0.1905-0.15081z"/>
    <path class="cls-1" d="m159.32 99.12 0.33867 2.6273a0.23019 0.23019 0 0 0 0.44979 0.0238l0.5424-2.2251a0.23019 0.23019 0 0 1 0.22225-0.17727h3.7571a0.22754 0.22754 0 0 0 0.22225-0.17462l0.17198-0.71438a0.22754 0.22754 0 0 0-0.22225-0.2831h-3.5507a0.23019 0.23019 0 0 1-0.22225-0.28575l0.63236-2.6458a0.23019 0.23019 0 0 1 0.22489-0.17727h4.2889a0.23019 0.23019 0 0 0 0.22225-0.17727l0.17462-0.74348a0.22754 0.22754 0 0 0-0.22225-0.2831h-5.6092a0.23548 0.23548 0 0 0-0.2249 0.17727l-1.1906 4.9768a0.21431 0.21431 0 0 0-5e-3 0.08202z"/>
    <path class="cls-1" d="m173.29 95.284a2.0426 2.0426 0 0 1 0.70644-0.30427 3.8841 3.8841 0 0 1 0.8837-0.09525 4.5402 4.5402 0 0 1 1.3229 0.16933 3.302 3.302 0 0 1 0.59531 0.23812 0.26458 0.26458 0 0 0 0.3519-0.09525l0.39687-0.66675a0.26458 0.26458 0 0 0-0.11112-0.36777c-0.0397-0.02117-0.082-0.03969-0.127-0.05821a5.0588 5.0588 0 0 0-0.58738-0.21696 5.6885 5.6885 0 0 0-0.73554-0.17198 5.4107 5.4107 0 0 0-0.84666-0.06615 5.8394 5.8394 0 0 0-1.688 0.22225 3.6565 3.6565 0 0 0-1.2409 0.63235 2.6458 2.6458 0 0 0-0.76465 0.97367 2.9104 2.9104 0 0 0-0.26458 1.2356 2.6167 2.6167 0 0 0 0.17198 0.99483 2.4791 2.4791 0 0 0 0.4445 0.72231 2.749 2.749 0 0 0 0.62442 0.51064c0.23283 0.14023 0.46302 0.26458 0.6932 0.38894 0.23019 0.12435 0.51065 0.26458 0.73555 0.39423a3.2755 3.2755 0 0 1 0.57943 0.39952 1.6748 1.6748 0 0 1 0.38629 0.49212 1.3758 1.3758 0 0 1 0.14023 0.64558 1.6986 1.6986 0 0 1-0.22225 0.89959 1.7568 1.7568 0 0 1-0.57943 0.58737 2.5532 2.5532 0 0 1-0.80963 0.32015 4.4635 4.4635 0 0 1-0.91546 0.0952 4.2148 4.2148 0 0 1-1.5452-0.24342 7.2311 7.2311 0 0 1-0.67205-0.30691 0.26458 0.26458 0 0 0-0.35189 0.10054l-0.4154 0.72496a0.26458 0.26458 0 0 0 0.10054 0.35983c0.0503 0.0291 0.10319 0.0582 0.16405 0.0873a4.5164 4.5164 0 0 0 0.61648 0.24606 6.1807 6.1807 0 0 0 0.84666 0.19844 6.9003 6.9003 0 0 0 2.7358-0.12436 3.9952 3.9952 0 0 0 1.3229-0.61912 2.9263 2.9263 0 0 0 0.87842-1.0239 3.0983 3.0983 0 0 0 0.32014-1.4367 2.6723 2.6723 0 0 0-0.17198-1.0107 2.3521 2.3521 0 0 0-0.46831-0.7276 3.1141 3.1141 0 0 0-0.69056-0.5424c-0.26458-0.15346-0.52917-0.30427-0.84138-0.45243-0.23812-0.11906-0.45773-0.23283-0.66145-0.34396a2.3521 2.3521 0 0 1-0.5133-0.36248 1.6536 1.6536 0 0 1-0.26458-1.8732 1.5875 1.5875 0 0 1 0.47096-0.52917z"/>
    <path class="cls-1" d="m108.4 99.117 0.33867 2.6247a0.23019 0.23019 0 0 0 0.45243 0.0264l0.52917-2.2225a0.23019 0.23019 0 0 1 0.22225-0.17727h3.7571a0.22754 0.22754 0 0 0 0.22225-0.17462l0.17198-0.71438a0.23019 0.23019 0 0 0-0.22489-0.2831h-3.5296a0.23019 0.23019 0 0 1-0.22225-0.28575l0.63236-2.6458a0.23019 0.23019 0 0 1 0.22489-0.17727h4.2889a0.23019 0.23019 0 0 0 0.22225-0.17727l0.17463-0.74348a0.23019 0.23019 0 0 0-0.2249-0.2831h-5.6065a0.23548 0.23548 0 0 0-0.2249 0.17727l-1.1906 4.9742a0.21431 0.21431 0 0 0-0.0132 0.08202z"/>
    <path class="cls-1" d="m113.64 104.08 0.21696-0.91546a0.14552 0.14552 0 0 0-0.14287-0.17727h-4.6461a0.14288 0.14288 0 0 0-0.14287 0.1614l0.11642 0.91546a0.14552 0.14552 0 0 0 0.14287 0.127h4.3154a0.14023 0.14023 0 0 0 0.14022-0.11113z"/>
    <path class="cls-1" d="m105.02 96.81a3.3443 3.3443 0 0 0-2.8681-2.9104l-0.24342-0.03175h-1.5716a0.16669 0.16669 0 0 0-0.16405 0.18521l0.12171 0.94192a0.20638 0.20638 0 0 0 0.20373 0.17727h1.4076l0.11906 0.02117a2.0743 2.0743 0 0 1 1.7039 1.7674 2.0294 2.0294 0 0 1-1.6457 2.2331h-1.0107a0.21167 0.21167 0 0 0-0.20902 0.23812l0.11906 0.93133 1.4975 3.72a0.16669 0.16669 0 0 0 0.15611 0.10319h1.1694a0.09525 0.09525 0 0 0 0.0873-0.13494l-1.5478-3.4634a0.09525 0.09525 0 0 1 0.0688-0.12964 3.3734 3.3734 0 0 0 2.6458-3.2597 3.4396 3.4396 0 0 0-0.0397-0.38894z"/>
    <path class="cls-1" d="m65.799 98.953 2.0161-3.2306a0.18521 0.18521 0 0 0 0.02381-0.10583l-0.16933-1.2938a0.15875 0.15875 0 0 0-0.29369-0.0635l-6.051 9.697a0.1614 0.1614 0 0 0 0.13758 0.24606h1.2039a0.15875 0.15875 0 0 0 0.14023-0.0794l2.1167-3.6751a0.1561 0.1561 0 0 1 0.13758-0.0794h3.2094a0.1614 0.1614 0 0 0 0.15875-0.18256l-0.10848-0.84661a0.16404 0.16404 0 0 0-0.1614-0.14023h-2.2225a0.1614 0.1614 0 0 1-0.13758-0.24606z"/>
    <path class="cls-1" d="m121.74 98.861 1.9447-3.1141a0.23548 0.23548 0 0 0 0.0317-0.14552l-0.14288-1.1086a0.22225 0.22225 0 0 0-0.40746-0.08731l-5.9002 9.4588a0.22225 0.22225 0 0 0 0.18785 0.33867h1.0583a0.22225 0.22225 0 0 0 0.19315-0.11112l2.0823-3.6142a0.2196 0.2196 0 0 1 0.19315-0.10848h3.0903a0.2249 0.2249 0 0 0 0.2196-0.25136l-0.0926-0.72495a0.22225 0.22225 0 0 0-0.2196-0.19315h-2.0532a0.2196 0.2196 0 0 1-0.18521-0.33867z"/>
    <path class="cls-1" d="m74.265 93.884h-1.0292a0.20902 0.20902 0 0 0-0.20108 0.15875l-1.1774 4.9133a0.23283 0.23283 0 0 0 0 0.07408l0.36248 2.7279a0.20373 0.20373 0 0 0 0.40217 0.0212l1.8362-7.6412a0.20902 0.20902 0 0 0-0.19314-0.254z"/>
    <path class="cls-1" d="m76.604 102.98h-3.9688a0.23019 0.23019 0 0 0-0.22754 0.26459l0.0979 0.74347a0.23019 0.23019 0 0 0 0.22754 0.20109h3.7042a0.23548 0.23548 0 0 0 0.20902-0.17727l0.17462-0.74348a0.23283 0.23283 0 0 0-0.21696-0.2884z"/>
    <path class="cls-1" d="m130.07 93.884h-1.0239a0.20638 0.20638 0 0 0-0.19844 0.1561l-1.1721 4.8921a0.23283 0.23283 0 0 0 0 0.07408l0.36248 2.7411a0.20373 0.20373 0 0 0 0.39952 0.0185l1.8336-7.6306a0.20373 0.20373 0 0 0-0.20108-0.25135z"/>
    <path class="cls-1" d="m132.45 102.98h-4.019a0.20108 0.20108 0 0 0-0.20108 0.23019l0.10583 0.79375a0.20108 0.20108 0 0 0 0.20109 0.17727h3.7253a0.20373 0.20373 0 0 0 0.19844-0.1561l0.18521-0.79375a0.20108 0.20108 0 0 0-0.19579-0.25136z"/>
    <path class="cls-1" d="m80.044 93.884a0.24077 0.24077 0 0 0-0.23283 0.18521l-0.16933 0.72496a0.24077 0.24077 0 0 0 0.23283 0.29369h2.503a0.24077 0.24077 0 0 1 0.23283 0.29369l-2.0452 8.5116a0.24077 0.24077 0 0 0 0.23283 0.29369h0.94985a0.24077 0.24077 0 0 0 0.23283-0.18257l2.0981-8.7312a0.24077 0.24077 0 0 1 0.23283-0.18256h1.5081a0.20638 0.20638 0 0 0 0.20638-0.23283l-0.10054-0.79375a0.20902 0.20902 0 0 0-0.20638-0.17992z"/>
    <path class="cls-1" d="m155.01 93.884a0.26458 0.26458 0 0 0-0.26458 0.20902l-2.3389 9.7578a0.26458 0.26458 0 0 0 0.26459 0.33602h0.88371a0.26458 0.26458 0 0 0 0.26458-0.20902l1.6007-6.6834a1.0425 1.0425 0 0 0 0.0212-0.37306l-0.38365-2.9951a0.050271 0.050271 0 0 0-0.0476-0.04233z"/>
  </g>
</svg>
